<?xml version="1.0" encoding="UTF-8" standalone="no"?>
<!DOCTYPE svg PUBLIC "-//W3C//DTD SVG 1.1//EN"
 "http://www.w3.org/Graphics/SVG/1.1/DTD/svg11.dtd">
<!-- Generated by graphviz version 4.0.0 (20220529.1859)
 -->
<!-- Title: snakemake_dag Pages: 1 -->
<svg width="353pt" height="476pt"
 viewBox="0.00 0.00 352.50 476.00" xmlns="http://www.w3.org/2000/svg" xmlns:xlink="http://www.w3.org/1999/xlink">
<g id="graph0" class="graph" transform="scale(1 1) rotate(0) translate(4 472)">
<title>snakemake_dag</title>
<polygon fill="white" stroke="transparent" points="-4,4 -4,-472 348.5,-472 348.5,4 -4,4"/>
<!-- 0 -->
<g id="node1" class="node">
<title>0</title>
<path fill="none" stroke="#5692d8" stroke-width="2" d="M152,-36C152,-36 122,-36 122,-36 116,-36 110,-30 110,-24 110,-24 110,-12 110,-12 110,-6 116,0 122,0 122,0 152,0 152,0 158,0 164,-6 164,-12 164,-12 164,-24 164,-24 164,-30 158,-36 152,-36"/>
<text text-anchor="middle" x="137" y="-15.5" font-family="sans" font-size="10.00">all</text>
</g>
<!-- 1 -->
<g id="node2" class="node">
<title>1</title>
<path fill="none" stroke="#d85656" stroke-width="2" d="M92,-180C92,-180 12,-180 12,-180 6,-180 0,-174 0,-168 0,-168 0,-156 0,-156 0,-150 6,-144 12,-144 12,-144 92,-144 92,-144 98,-144 104,-150 104,-156 104,-156 104,-168 104,-168 104,-174 98,-180 92,-180"/>
<text text-anchor="middle" x="52" y="-159.5" font-family="sans" font-size="10.00">samtools_flagstat</text>
</g>
<!-- 1&#45;&gt;0 -->
<g id="edge1" class="edge">
<title>1&#45;&gt;0</title>
<path fill="none" stroke="grey" stroke-width="2" d="M43.39,-143.99C35.13,-125.08 25.73,-94.27 39,-72 52.23,-49.81 78.32,-36.35 100.26,-28.55"/>
<polygon fill="grey" stroke="grey" stroke-width="2" points="101.58,-31.8 109.99,-25.35 99.4,-25.15 101.58,-31.8"/>
</g>
<!-- 6 -->
<g id="node7" class="node">
<title>6</title>
<path fill="none" stroke="#70d856" stroke-width="2" d="M108,-108C108,-108 60,-108 60,-108 54,-108 48,-102 48,-96 48,-96 48,-84 48,-84 48,-78 54,-72 60,-72 60,-72 108,-72 108,-72 114,-72 120,-78 120,-84 120,-84 120,-96 120,-96 120,-102 114,-108 108,-108"/>
<text text-anchor="middle" x="84" y="-87.5" font-family="sans" font-size="10.00">final_report</text>
</g>
<!-- 1&#45;&gt;6 -->
<g id="edge10" class="edge">
<title>1&#45;&gt;6</title>
<path fill="none" stroke="grey" stroke-width="2" d="M59.91,-143.7C63.55,-135.73 67.95,-126.1 71.99,-117.26"/>
<polygon fill="grey" stroke="grey" stroke-width="2" points="75.21,-118.65 76.18,-108.1 68.84,-115.74 75.21,-118.65"/>
</g>
<!-- 2 -->
<g id="node3" class="node">
<title>2</title>
<path fill="none" stroke="#afd856" stroke-width="2" d="M83,-324C83,-324 21,-324 21,-324 15,-324 9,-318 9,-312 9,-312 9,-300 9,-300 9,-294 15,-288 21,-288 21,-288 83,-288 83,-288 89,-288 95,-294 95,-300 95,-300 95,-312 95,-312 95,-318 89,-324 83,-324"/>
<text text-anchor="middle" x="52" y="-303.5" font-family="sans" font-size="10.00">samtools_sort</text>
</g>
<!-- 2&#45;&gt;1 -->
<g id="edge5" class="edge">
<title>2&#45;&gt;1</title>
<path fill="none" stroke="grey" stroke-width="2" d="M44.52,-287.7C40.53,-277.52 36.03,-264.27 34,-252 31.39,-236.21 31.39,-231.79 34,-216 35.44,-207.28 38.13,-198.06 41,-189.8"/>
<polygon fill="grey" stroke="grey" stroke-width="2" points="44.33,-190.89 44.52,-180.3 37.77,-188.46 44.33,-190.89"/>
</g>
<!-- 5 -->
<g id="node6" class="node">
<title>5</title>
<path fill="none" stroke="#56c9d8" stroke-width="2" d="M125,-252C125,-252 55,-252 55,-252 49,-252 43,-246 43,-240 43,-240 43,-228 43,-228 43,-222 49,-216 55,-216 55,-216 125,-216 125,-216 131,-216 137,-222 137,-228 137,-228 137,-240 137,-240 137,-246 131,-252 125,-252"/>
<text text-anchor="middle" x="90" y="-231.5" font-family="sans" font-size="10.00">samtools_index</text>
</g>
<!-- 2&#45;&gt;5 -->
<g id="edge9" class="edge">
<title>2&#45;&gt;5</title>
<path fill="none" stroke="grey" stroke-width="2" d="M61.39,-287.7C65.76,-279.64 71.06,-269.89 75.9,-260.98"/>
<polygon fill="grey" stroke="grey" stroke-width="2" points="79.02,-262.56 80.71,-252.1 72.87,-259.22 79.02,-262.56"/>
</g>
<!-- 3 -->
<g id="node4" class="node">
<title>3</title>
<path fill="none" stroke="#d88d56" stroke-width="2" d="M72,-396C72,-396 32,-396 32,-396 26,-396 20,-390 20,-384 20,-384 20,-372 20,-372 20,-366 26,-360 32,-360 32,-360 72,-360 72,-360 78,-360 84,-366 84,-372 84,-372 84,-384 84,-384 84,-390 78,-396 72,-396"/>
<text text-anchor="middle" x="52" y="-375.5" font-family="sans" font-size="10.00">bwa_map</text>
</g>
<!-- 3&#45;&gt;2 -->
<g id="edge7" class="edge">
<title>3&#45;&gt;2</title>
<path fill="none" stroke="grey" stroke-width="2" d="M52,-359.7C52,-351.98 52,-342.71 52,-334.11"/>
<polygon fill="grey" stroke="grey" stroke-width="2" points="55.5,-334.1 52,-324.1 48.5,-334.1 55.5,-334.1"/>
</g>
<!-- 4 -->
<g id="node5" class="node">
<title>4</title>
<path fill="none" stroke="#d8cb56" stroke-width="2" d="M74.5,-468C74.5,-468 29.5,-468 29.5,-468 23.5,-468 17.5,-462 17.5,-456 17.5,-456 17.5,-444 17.5,-444 17.5,-438 23.5,-432 29.5,-432 29.5,-432 74.5,-432 74.5,-432 80.5,-432 86.5,-438 86.5,-444 86.5,-444 86.5,-456 86.5,-456 86.5,-462 80.5,-468 74.5,-468"/>
<text text-anchor="middle" x="52" y="-447.5" font-family="sans" font-size="10.00">bwa_index</text>
</g>
<!-- 4&#45;&gt;3 -->
<g id="edge8" class="edge">
<title>4&#45;&gt;3</title>
<path fill="none" stroke="grey" stroke-width="2" d="M52,-431.7C52,-423.98 52,-414.71 52,-406.11"/>
<polygon fill="grey" stroke="grey" stroke-width="2" points="55.5,-406.1 52,-396.1 48.5,-406.1 55.5,-406.1"/>
</g>
<!-- 5&#45;&gt;1 -->
<g id="edge6" class="edge">
<title>5&#45;&gt;1</title>
<path fill="none" stroke="grey" stroke-width="2" d="M80.61,-215.7C76.24,-207.64 70.94,-197.89 66.1,-188.98"/>
<polygon fill="grey" stroke="grey" stroke-width="2" points="69.13,-187.22 61.29,-180.1 62.98,-190.56 69.13,-187.22"/>
</g>
<!-- 6&#45;&gt;0 -->
<g id="edge2" class="edge">
<title>6&#45;&gt;0</title>
<path fill="none" stroke="grey" stroke-width="2" d="M97.1,-71.7C103.39,-63.39 111.05,-53.28 117.96,-44.14"/>
<polygon fill="grey" stroke="grey" stroke-width="2" points="120.8,-46.19 124.05,-36.1 115.22,-41.96 120.8,-46.19"/>
</g>
<!-- 7 -->
<g id="node8" class="node">
<title>7</title>
<path fill="none" stroke="#56d8a9" stroke-width="2" d="M231.5,-108C231.5,-108 150.5,-108 150.5,-108 144.5,-108 138.5,-102 138.5,-96 138.5,-96 138.5,-84 138.5,-84 138.5,-78 144.5,-72 150.5,-72 150.5,-72 231.5,-72 231.5,-72 237.5,-72 243.5,-78 243.5,-84 243.5,-84 243.5,-96 243.5,-96 243.5,-102 237.5,-108 231.5,-108"/>
<text text-anchor="middle" x="191" y="-87.5" font-family="sans" font-size="10.00">reference_metrics</text>
</g>
<!-- 7&#45;&gt;0 -->
<g id="edge3" class="edge">
<title>7&#45;&gt;0</title>
<path fill="none" stroke="grey" stroke-width="2" d="M177.65,-71.7C171.24,-63.39 163.44,-53.28 156.39,-44.14"/>
<polygon fill="grey" stroke="grey" stroke-width="2" points="159.07,-41.88 150.19,-36.1 153.53,-46.16 159.07,-41.88"/>
</g>
<!-- 8 -->
<g id="node9" class="node">
<title>8</title>
<path fill="none" stroke="#56d873" stroke-width="2" d="M332.5,-108C332.5,-108 273.5,-108 273.5,-108 267.5,-108 261.5,-102 261.5,-96 261.5,-96 261.5,-84 261.5,-84 261.5,-78 267.5,-72 273.5,-72 273.5,-72 332.5,-72 332.5,-72 338.5,-72 344.5,-78 344.5,-84 344.5,-84 344.5,-96 344.5,-96 344.5,-102 338.5,-108 332.5,-108"/>
<text text-anchor="middle" x="303" y="-87.5" font-family="sans" font-size="10.00">fastq_metrics</text>
</g>
<!-- 8&#45;&gt;0 -->
<g id="edge4" class="edge">
<title>8&#45;&gt;0</title>
<path fill="none" stroke="grey" stroke-width="2" d="M262.39,-71.88C235.21,-60.41 199.73,-45.45 173.45,-34.37"/>
<polygon fill="grey" stroke="grey" stroke-width="2" points="174.79,-31.14 164.22,-30.48 172.07,-37.59 174.79,-31.14"/>
</g>
</g>
</svg>
