<?xml version="1.0" encoding="UTF-8" standalone="no"?>
<!DOCTYPE svg PUBLIC "-//W3C//DTD SVG 1.1//EN"
 "http://www.w3.org/Graphics/SVG/1.1/DTD/svg11.dtd">
<!-- Generated by graphviz version 4.0.0 (20220529.1859)
 -->
<!-- Title: snakemake_dag Pages: 1 -->
<svg width="427pt" height="548pt"
 viewBox="0.00 0.00 427.00 548.00" xmlns="http://www.w3.org/2000/svg" xmlns:xlink="http://www.w3.org/1999/xlink">
<g id="graph0" class="graph" transform="scale(1 1) rotate(0) translate(4 544)">
<title>snakemake_dag</title>
<polygon fill="white" stroke="transparent" points="-4,4 -4,-544 423,-544 423,4 -4,4"/>
<!-- 0 -->
<g id="node1" class="node">
<title>0</title>
<path fill="none" stroke="#56c1d8" stroke-width="2" d="M185,-36C185,-36 155,-36 155,-36 149,-36 143,-30 143,-24 143,-24 143,-12 143,-12 143,-6 149,0 155,0 155,0 185,0 185,0 191,0 197,-6 197,-12 197,-12 197,-24 197,-24 197,-30 191,-36 185,-36"/>
<text text-anchor="middle" x="170" y="-15.5" font-family="sans" font-size="10.00">all</text>
</g>
<!-- 1 -->
<g id="node2" class="node">
<title>1</title>
<path fill="none" stroke="#56d88a" stroke-width="2" d="M92,-252C92,-252 12,-252 12,-252 6,-252 0,-246 0,-240 0,-240 0,-228 0,-228 0,-222 6,-216 12,-216 12,-216 92,-216 92,-216 98,-216 104,-222 104,-228 104,-228 104,-240 104,-240 104,-246 98,-252 92,-252"/>
<text text-anchor="middle" x="52" y="-231.5" font-family="sans" font-size="10.00">samtools_flagstat</text>
</g>
<!-- 1&#45;&gt;0 -->
<g id="edge5" class="edge">
<title>1&#45;&gt;0</title>
<path fill="none" stroke="grey" stroke-width="2" d="M40.69,-215.77C30.18,-197.47 17.61,-167.93 28,-144 48.95,-95.74 99.28,-58.93 134.02,-38.14"/>
<polygon fill="grey" stroke="grey" stroke-width="2" points="136.04,-41.01 142.93,-32.95 132.52,-34.96 136.04,-41.01"/>
</g>
<!-- 6 -->
<g id="node7" class="node">
<title>6</title>
<path fill="none" stroke="#d8bc56" stroke-width="2" d="M141,-180C141,-180 49,-180 49,-180 43,-180 37,-174 37,-168 37,-168 37,-156 37,-156 37,-150 43,-144 49,-144 49,-144 141,-144 141,-144 147,-144 153,-150 153,-156 153,-156 153,-168 153,-168 153,-174 147,-180 141,-180"/>
<text text-anchor="middle" x="95" y="-159.5" font-family="sans" font-size="10.00">get_flagstat_metrics</text>
</g>
<!-- 1&#45;&gt;6 -->
<g id="edge11" class="edge">
<title>1&#45;&gt;6</title>
<path fill="none" stroke="grey" stroke-width="2" d="M62.63,-215.7C67.63,-207.56 73.69,-197.69 79.21,-188.7"/>
<polygon fill="grey" stroke="grey" stroke-width="2" points="82.24,-190.46 84.49,-180.1 76.28,-186.79 82.24,-190.46"/>
</g>
<!-- 2 -->
<g id="node3" class="node">
<title>2</title>
<path fill="none" stroke="#59d856" stroke-width="2" d="M83,-396C83,-396 21,-396 21,-396 15,-396 9,-390 9,-384 9,-384 9,-372 9,-372 9,-366 15,-360 21,-360 21,-360 83,-360 83,-360 89,-360 95,-366 95,-372 95,-372 95,-384 95,-384 95,-390 89,-396 83,-396"/>
<text text-anchor="middle" x="52" y="-375.5" font-family="sans" font-size="10.00">samtools_sort</text>
</g>
<!-- 2&#45;&gt;1 -->
<g id="edge6" class="edge">
<title>2&#45;&gt;1</title>
<path fill="none" stroke="grey" stroke-width="2" d="M44.52,-359.7C40.53,-349.52 36.03,-336.27 34,-324 31.39,-308.21 31.39,-303.79 34,-288 35.44,-279.28 38.13,-270.06 41,-261.8"/>
<polygon fill="grey" stroke="grey" stroke-width="2" points="44.33,-262.89 44.52,-252.3 37.77,-260.46 44.33,-262.89"/>
</g>
<!-- 5 -->
<g id="node6" class="node">
<title>5</title>
<path fill="none" stroke="#568ad8" stroke-width="2" d="M125,-324C125,-324 55,-324 55,-324 49,-324 43,-318 43,-312 43,-312 43,-300 43,-300 43,-294 49,-288 55,-288 55,-288 125,-288 125,-288 131,-288 137,-294 137,-300 137,-300 137,-312 137,-312 137,-318 131,-324 125,-324"/>
<text text-anchor="middle" x="90" y="-303.5" font-family="sans" font-size="10.00">samtools_index</text>
</g>
<!-- 2&#45;&gt;5 -->
<g id="edge10" class="edge">
<title>2&#45;&gt;5</title>
<path fill="none" stroke="grey" stroke-width="2" d="M61.39,-359.7C65.76,-351.64 71.06,-341.89 75.9,-332.98"/>
<polygon fill="grey" stroke="grey" stroke-width="2" points="79.02,-334.56 80.71,-324.1 72.87,-331.22 79.02,-334.56"/>
</g>
<!-- 3 -->
<g id="node4" class="node">
<title>3</title>
<path fill="none" stroke="#56d8c1" stroke-width="2" d="M72,-468C72,-468 32,-468 32,-468 26,-468 20,-462 20,-456 20,-456 20,-444 20,-444 20,-438 26,-432 32,-432 32,-432 72,-432 72,-432 78,-432 84,-438 84,-444 84,-444 84,-456 84,-456 84,-462 78,-468 72,-468"/>
<text text-anchor="middle" x="52" y="-447.5" font-family="sans" font-size="10.00">bwa_map</text>
</g>
<!-- 3&#45;&gt;2 -->
<g id="edge8" class="edge">
<title>3&#45;&gt;2</title>
<path fill="none" stroke="grey" stroke-width="2" d="M52,-431.7C52,-423.98 52,-414.71 52,-406.11"/>
<polygon fill="grey" stroke="grey" stroke-width="2" points="55.5,-406.1 52,-396.1 48.5,-406.1 55.5,-406.1"/>
</g>
<!-- 4 -->
<g id="node5" class="node">
<title>4</title>
<path fill="none" stroke="#bed856" stroke-width="2" d="M74.5,-540C74.5,-540 29.5,-540 29.5,-540 23.5,-540 17.5,-534 17.5,-528 17.5,-528 17.5,-516 17.5,-516 17.5,-510 23.5,-504 29.5,-504 29.5,-504 74.5,-504 74.5,-504 80.5,-504 86.5,-510 86.5,-516 86.5,-516 86.5,-528 86.5,-528 86.5,-534 80.5,-540 74.5,-540"/>
<text text-anchor="middle" x="52" y="-519.5" font-family="sans" font-size="10.00">bwa_index</text>
</g>
<!-- 4&#45;&gt;3 -->
<g id="edge9" class="edge">
<title>4&#45;&gt;3</title>
<path fill="none" stroke="grey" stroke-width="2" d="M52,-503.7C52,-495.98 52,-486.71 52,-478.11"/>
<polygon fill="grey" stroke="grey" stroke-width="2" points="55.5,-478.1 52,-468.1 48.5,-478.1 55.5,-478.1"/>
</g>
<!-- 5&#45;&gt;1 -->
<g id="edge7" class="edge">
<title>5&#45;&gt;1</title>
<path fill="none" stroke="grey" stroke-width="2" d="M80.61,-287.7C76.24,-279.64 70.94,-269.89 66.1,-260.98"/>
<polygon fill="grey" stroke="grey" stroke-width="2" points="69.13,-259.22 61.29,-252.1 62.98,-262.56 69.13,-259.22"/>
</g>
<!-- 6&#45;&gt;0 -->
<g id="edge3" class="edge">
<title>6&#45;&gt;0</title>
<path fill="none" stroke="grey" stroke-width="2" d="M98.74,-143.8C103.23,-125.26 111.84,-95.28 125,-72 130.58,-62.13 138.13,-52.36 145.45,-43.95"/>
<polygon fill="grey" stroke="grey" stroke-width="2" points="148.21,-46.11 152.32,-36.35 143.02,-41.42 148.21,-46.11"/>
</g>
<!-- 9 -->
<g id="node10" class="node">
<title>9</title>
<path fill="none" stroke="#d88d56" stroke-width="2" d="M194,-108C194,-108 146,-108 146,-108 140,-108 134,-102 134,-96 134,-96 134,-84 134,-84 134,-78 140,-72 146,-72 146,-72 194,-72 194,-72 200,-72 206,-78 206,-84 206,-84 206,-96 206,-96 206,-102 200,-108 194,-108"/>
<text text-anchor="middle" x="170" y="-87.5" font-family="sans" font-size="10.00">final_report</text>
</g>
<!-- 6&#45;&gt;9 -->
<g id="edge14" class="edge">
<title>6&#45;&gt;9</title>
<path fill="none" stroke="grey" stroke-width="2" d="M113.54,-143.7C122.8,-135.05 134.16,-124.45 144.26,-115.03"/>
<polygon fill="grey" stroke="grey" stroke-width="2" points="146.75,-117.49 151.67,-108.1 141.98,-112.37 146.75,-117.49"/>
</g>
<!-- 7 -->
<g id="node8" class="node">
<title>7</title>
<path fill="none" stroke="#d85656" stroke-width="2" d="M285,-180C285,-180 183,-180 183,-180 177,-180 171,-174 171,-168 171,-168 171,-156 171,-156 171,-150 177,-144 183,-144 183,-144 285,-144 285,-144 291,-144 297,-150 297,-156 297,-156 297,-168 297,-168 297,-174 291,-180 285,-180"/>
<text text-anchor="middle" x="234" y="-159.5" font-family="sans" font-size="10.00">get_reference_metrics</text>
</g>
<!-- 7&#45;&gt;0 -->
<g id="edge1" class="edge">
<title>7&#45;&gt;0</title>
<path fill="none" stroke="grey" stroke-width="2" d="M232.83,-143.79C231.02,-125.24 226.44,-95.25 215,-72 209.99,-61.82 202.6,-51.97 195.24,-43.59"/>
<polygon fill="grey" stroke="grey" stroke-width="2" points="197.63,-41.01 188.29,-36.03 192.48,-45.76 197.63,-41.01"/>
</g>
<!-- 7&#45;&gt;9 -->
<g id="edge12" class="edge">
<title>7&#45;&gt;9</title>
<path fill="none" stroke="grey" stroke-width="2" d="M218.18,-143.7C210.43,-135.22 200.96,-124.86 192.48,-115.58"/>
<polygon fill="grey" stroke="grey" stroke-width="2" points="194.97,-113.12 185.64,-108.1 189.8,-117.85 194.97,-113.12"/>
</g>
<!-- 8 -->
<g id="node9" class="node">
<title>8</title>
<path fill="none" stroke="#88d856" stroke-width="2" d="M407,-180C407,-180 327,-180 327,-180 321,-180 315,-174 315,-168 315,-168 315,-156 315,-156 315,-150 321,-144 327,-144 327,-144 407,-144 407,-144 413,-144 419,-150 419,-156 419,-156 419,-168 419,-168 419,-174 413,-180 407,-180"/>
<text text-anchor="middle" x="367" y="-159.5" font-family="sans" font-size="10.00">get_fastq_metrics</text>
</g>
<!-- 8&#45;&gt;0 -->
<g id="edge4" class="edge">
<title>8&#45;&gt;0</title>
<path fill="none" stroke="grey" stroke-width="2" d="M343.24,-143.87C308.04,-118.5 241.94,-70.85 202.35,-42.32"/>
<polygon fill="grey" stroke="grey" stroke-width="2" points="204.01,-39.2 193.85,-36.19 199.91,-44.88 204.01,-39.2"/>
</g>
<!-- 8&#45;&gt;9 -->
<g id="edge13" class="edge">
<title>8&#45;&gt;9</title>
<path fill="none" stroke="grey" stroke-width="2" d="M319.06,-143.97C287.61,-132.79 246.73,-118.27 215.74,-107.25"/>
<polygon fill="grey" stroke="grey" stroke-width="2" points="216.64,-103.86 206.05,-103.81 214.3,-110.46 216.64,-103.86"/>
</g>
<!-- 9&#45;&gt;0 -->
<g id="edge2" class="edge">
<title>9&#45;&gt;0</title>
<path fill="none" stroke="grey" stroke-width="2" d="M170,-71.7C170,-63.98 170,-54.71 170,-46.11"/>
<polygon fill="grey" stroke="grey" stroke-width="2" points="173.5,-46.1 170,-36.1 166.5,-46.1 173.5,-46.1"/>
</g>
</g>
</svg>
